<svg version="1.1" xmlns="http://www.w3.org/2000/svg" viewBox="0 0 41.3 41.3">
<title>12 black</title>
<g id="12-age-icon-black">
    <path
       id="path4807"
       style="fill:#ffcb03;fill-opacity:1;fill-rule:nonzero;stroke:none"
       d="M 20.60375,41.5 C 31.9825,41.5 41.2075,32.27375 41.2075,20.89625 41.2075,9.5174999 31.9825,0.2925 20.60375,0.2925 9.225,0.2925 0,9.5174999 0,20.89625 0,32.27375 9.225,41.5 20.60375,41.5" />
    <g
       id="g4272"
       transform="translate(4.128125,4.370625)">
      <g
         id="g5398"
         transform="matrix(1.25,0,0,-1.25,16.47625,4.17)">
        <path
           d="m 0,0 c 5.451,0 9.885,-4.434 9.885,-9.885 0,-5.451 -4.434,-9.885 -9.885,-9.885 -5.451,0 -9.886,4.434 -9.886,9.885 C -9.886,-4.434 -5.451,0 0,0 m 0,3.295 c -7.28,0 -13.181,-5.899 -13.181,-13.18 0,-7.279 5.901,-13.179 13.181,-13.179 7.279,0 13.18,5.9 13.18,13.179 0,7.281 -5.901,13.18 -13.18,13.18"
           style="fill:#231f20;fill-opacity:1;fill-rule:nonzero;stroke:none"
           id="path5400"/>
      </g>
      <g
         id="g5402"
         transform="matrix(1.25,0,0,-1.25,14.217929,12.841177)">
        <g
           id="text4239"
           style="fill:#ffcb03;fill-opacity:1;stroke:none;stroke-width:1px;stroke-linecap:butt;stroke-linejoin:miter;stroke-opacity:1"
           transform="scale(0.99752196,-1.0024842)">
          <path
             id="path4362"
             style="fill:#231f20;fill-opacity:1"
             d="m -2.5320967,6.9586544 0,-7.02622553 -0.8262131,0 q -0.4711463,0 -0.7101336,-0.27995651 -0.2389872,-0.28678472 -0.2389872,-0.68282076 0,-0.3823796 0.2526436,-0.6691643 0.2594719,-0.293613 0.6964772,-0.293613 l 1.9870084,0 q 0.43700529,0 0.68282076,0.2799566 0.25264368,0.2731283 0.25264368,0.7101335 l 0,7.96169 q 0,0.5189438 -0.29361293,0.8057285 -0.28678471,0.2799565 -0.75110281,0.2799565 -0.4574899,0 -0.757931,-0.2867847 -0.293613,-0.2936129 -0.293613,-0.7989003 z"/>
          <path
             id="path4364"
             style="fill:#231f20;fill-opacity:1"
             d="m 4.2824546,6.1187849 2.5605778,0 q 0.4916309,0 0.7852439,0.232159 0.3004411,0.2253309 0.3004411,0.689649 0,0.4574899 -0.2867847,0.689649 -0.2799565,0.232159 -0.7169618,0.232159 l -4.670494,0 q -0.4916309,0 -0.792072,-0.232159 -0.3004412,-0.2321591 -0.3004412,-0.689649 0,-0.3140975 0.3209258,-0.7169618 Q 1.8789255,5.8524848 2.3364154,5.3403692 2.7939053,4.8282537 3.2718799,4.2888253 3.7498544,3.7493969 4.1800315,3.2099685 4.6102085,2.6637119 4.9652753,2.1447681 q 0.491631,-0.7033054 0.491631,-1.29735943 0,-0.43700528 -0.2936129,-0.75793103 -0.293613,-0.32092575 -0.7169618,-0.32092575 -0.525772,0 -0.7715875,0.29361292 Q 3.4289286,0.34894953 3.2582235,0.91569075 3.0875183,1.4756038 2.9031567,1.7555603 2.7187951,2.0355168 2.2681334,2.0355168 q -0.4711464,0 -0.7511029,-0.3004411 -0.2731283,-0.3004412 -0.2731283,-0.72379 0,-0.86035419 0.4574899,-1.58414419 0.4574899,-0.73061821 1.2222492,-1.16079531 0.7647592,-0.430177 1.611457,-0.430177 0.8671823,0 1.5704877,0.361895 0.7101336,0.3550667 1.119826,1.02423108 0.4096925,0.66233613 0.4096925,1.52269028 0,0.66916434 -0.327754,1.38612614 Q 6.9864248,2.8412453 6.4947938,3.489925 6.0031629,4.1386047 5.2998575,4.9306768 4.5965521,5.7227488 4.2824546,6.1187849 Z"/>
        </g>
      </g>
    </g>
</g>
</svg>
