<svg version="1.1" xmlns="http://www.w3.org/2000/svg" viewBox="0 0 41.3 41.3">
<title>16 black</title>
<g id="16-age-icon-black">
    <path
       id="path4807"
       style="fill:#ffcb03;fill-opacity:1;fill-rule:nonzero;stroke:none"
       d="m 20.603748,41.5 c 11.378751,0 20.603751,-9.22625 20.603751,-20.60375 0,-11.37875 -9.225,-20.60375 -20.603751,-20.60375 C 9.224999,0.2925 0,9.5175 0,20.89625 0,32.27375 9.224999,41.5 20.603748,41.5" />
    <g
       id="g4374"
       transform="translate(4.1281245,4.370625)">
      <g
         id="g5398"
         transform="matrix(1.25,0,0,-1.25,16.47625,4.17)">
        <path
           d="m 0,0 c 5.451,0 9.885,-4.434 9.885,-9.885 0,-5.451 -4.434,-9.885 -9.885,-9.885 -5.451,0 -9.886,4.434 -9.886,9.885 C -9.886,-4.434 -5.451,0 0,0 m 0,3.295 c -7.28,0 -13.181,-5.899 -13.181,-13.18 0,-7.279 5.901,-13.179 13.181,-13.179 7.279,0 13.18,5.9 13.18,13.179 0,7.281 -5.901,13.18 -13.18,13.18"
           style="fill:#231f20;fill-opacity:1;fill-rule:nonzero;stroke:none"
           id="path5400"/>
      </g>
      <g
         id="g5402"
         transform="matrix(1.25,0,0,-1.25,14.137045,12.78556)">
        <g
           id="text4239"
           style="fill:#ffcb03;fill-opacity:1;stroke:none;stroke-width:1px;stroke-linecap:butt;stroke-linejoin:miter;stroke-opacity:1"
           transform="scale(0.99752196,-1.0024842)">
          <path
             id="path4481"
             style="fill:#231f20;fill-opacity:1"
             d="m -2.5320967,6.9586544 0,-7.02622553 -0.8262131,0 q -0.4711463,0 -0.7101336,-0.27995651 -0.2389872,-0.28678472 -0.2389872,-0.68282076 0,-0.3823796 0.2526436,-0.6691643 0.2594719,-0.293613 0.6964772,-0.293613 l 1.9870084,0 q 0.43700529,0 0.68282076,0.2799566 0.25264368,0.2731283 0.25264368,0.7101335 l 0,7.96169 q 0,0.5189438 -0.29361293,0.8057285 -0.28678471,0.2799565 -0.75110281,0.2799565 -0.4574899,0 -0.757931,-0.2867847 -0.293613,-0.2936129 -0.293613,-0.7989003 z"/>
          <path
             id="path4483"
             style="fill:#231f20;fill-opacity:1"
             d="m 4.5487547,8.1331061 q -1.0447158,0 -1.8504443,-0.4711463 Q 1.8994102,7.1839853 1.4692331,6.3919132 1.039056,5.5998411 1.039056,4.6643767 q 0,-0.9764337 0.5530848,-2.1986828 0.559913,-1.2222492 1.3929544,-2.34890343 0.8398695,-1.13348247 1.6046287,-1.84361607 0.095595,-0.1024231 0.4438335,-0.3345821 0.1570488,-0.1024231 0.4233489,-0.1024231 0.1911898,0 0.4233488,0.1502205 0.2389873,0.1502206 0.4028643,0.3960361 0.163877,0.2458154 0.163877,0.4779745 0,0.21167442 -0.293613,0.57356942 Q 5.941709,-0.3065584 5.2110908,0.49917009 4.4873008,1.3048986 4.2278289,1.6667936 l 0.027313,0.027313 q 0.3755514,-0.163877 0.8808387,-0.163877 0.6281951,0 1.1607953,0.2594719 0.5394284,0.2526437 0.9286362,0.6828208 0.3892079,0.430177 0.6077105,0.9969183 0.2253308,0.5667412 0.2253308,1.1949363 0,0.9081516 -0.4506617,1.7070519 Q 7.15713,7.1703288 6.3445733,7.6551316 5.5388448,8.1331061 4.5487547,8.1331061 Z m 0,-4.9231376 q -0.3892079,0 -0.6964772,0.1911898 -0.3004411,0.1911898 -0.4711463,0.5326002 -0.163877,0.3345821 -0.163877,0.7306182 0,0.6077104 0.361895,1.0310593 0.3687232,0.4233489 0.9696055,0.4233489 0.5872258,0 0.955949,-0.4165207 0.3687232,-0.4233488 0.3687232,-1.0378875 0,-0.3823796 -0.1502205,-0.7101336 Q 5.5729858,3.6196609 5.2793729,3.4148147 4.98576,3.2099685 4.5487547,3.2099685 Z"/>
        </g>
      </g>
    </g>
</g>
</svg>
