<svg version="1.1" xmlns="http://www.w3.org/2000/svg" viewBox="0 0 41.3 41.3">
<title>18 black</title>
<g id="18-age-icon-black">
    <path
       id="path4807"
       style="fill:#ed1c24;fill-opacity:1;fill-rule:nonzero;stroke:none"
       d="m 20.603748,41.5 c 11.378751,0 20.603751,-9.22625 20.603751,-20.60375 0,-11.3787504 -9.225,-20.6037504 -20.603751,-20.6037504 C 9.224999,0.2924996 0,9.5174996 0,20.89625 0,32.27375 9.224999,41.5 20.603748,41.5" />
    <g
       id="g4197"
       transform="translate(4.1281245,4.3706248)">
      <g
         id="g5398"
         transform="matrix(1.25,0,0,-1.25,16.47625,4.17)">
        <path
           d="M 0,0 C 4.2950319,0 7.9586684,-2.7528092 9.3193741,-6.586892 9.6855955,-7.6188 9.885,-8.7290319 9.885,-9.885 9.885,-15.336 5.451,-19.77 0,-19.77 c -5.451,0 -9.886,4.434 -9.886,9.885 C -9.886,-4.434 -5.451,0 0,0 m 0,3.295 c -7.28,0 -13.181,-5.899 -13.181,-13.18 0,-7.279 5.901,-13.179 13.181,-13.179 7.279,0 13.18,5.9 13.18,13.179 0,7.281 -5.901,13.18 -13.18,13.18"
           style="fill:#231f20;fill-opacity:1;fill-rule:nonzero;stroke:none"
           id="path5400"/>
      </g>
      <g
         id="g5402"
         transform="matrix(1.25,0,0,-1.25,13.962506,12.841177)">
        <g
           id="text4239"
           style="fill:#ed1c24;fill-opacity:1;stroke:none;stroke-width:1px;stroke-linecap:butt;stroke-linejoin:miter;stroke-opacity:1"
           transform="scale(0.99752196,-1.0024842)">
          <path
             id="path5171"
             style="fill:#231f20;fill-opacity:1"
             d="m -2.5320967,6.9586544 0,-7.02622553 -0.8262131,0 q -0.4711463,0 -0.7101336,-0.27995651 -0.2389872,-0.28678472 -0.2389872,-0.68282076 0,-0.3823796 0.2526436,-0.6691643 0.2594719,-0.293613 0.6964772,-0.293613 l 1.9870084,0 q 0.43700529,0 0.68282076,0.2799566 0.25264368,0.2731283 0.25264368,0.7101335 l 0,7.96169 q 0,0.5189438 -0.29361293,0.8057285 -0.28678471,0.2799565 -0.75110281,0.2799565 -0.4574899,0 -0.757931,-0.2867847 -0.293613,-0.2936129 -0.293613,-0.7989003 z"/>
          <path
             id="path5173"
             style="fill:#231f20;fill-opacity:1"
             d="m 4.5487547,3.4011583 q -0.5940541,0 -0.9354645,0.396036 -0.3414103,0.3960361 -0.3414103,1.0037465 0,0.5735695 0.3345821,0.9900901 0.3345822,0.4096925 0.9422927,0.4096925 0.5735694,0 0.921808,-0.4096925 0.3482386,-0.4165206 0.3482386,-0.9900901 0,-0.6623361 -0.3414104,-1.0310593 Q 5.1359805,3.4011583 4.5487547,3.4011583 Z m 0,4.7319478 q -0.9627773,0 -1.7548494,-0.4028642 Q 2.0086615,7.3205494 1.5511716,6.5899312 1.0936817,5.8524848 1.0936817,4.9443332 q 0,-0.5394284 0.1843616,-1.0037465 Q 1.4692331,3.4762686 1.8106435,3.1143736 2.158882,2.7524786 2.5890591,2.5203195 1.5238587,1.7555603 1.5238587,0.51965471 q 0,-0.59405405 0.2321591,-1.0925132 0.2389873,-0.50528731 0.6418515,-0.85352591 0.4096925,-0.3550668 0.9559491,-0.5462566 0.5530848,-0.1911898 1.1949363,-0.1911898 0.6145387,0 1.1607953,0.1843616 0.5462566,0.1843616 0.9696054,0.5462566 0.4301771,0.3550668 0.6623362,0.8535259 0.2389872,0.49845915 0.2389872,1.09934141 0,0.60771049 -0.2867847,1.14713889 -0.2799565,0.5326002 -0.7920721,0.8535259 0.72379,0.361895 1.1129979,0.9900901 0.3892078,0.6281951 0.3892078,1.4339236 0,0.9286362 -0.4711463,1.6592544 -0.4643181,0.7306182 -1.2563902,1.1334825 -0.7852439,0.396036 -1.7275365,0.396036 z m 0,-8.4464927 q -0.4779745,0 -0.7442746,0.29361292 Q 3.53818,0.27383924 3.53818,0.74498556 q 0,0.47797454 0.2663001,0.77158744 0.2663001,0.2936129 0.7442746,0.2936129 0.4711463,0 0.7442746,-0.2936129 0.2731283,-0.2936129 0.2731283,-0.77158744 0,-0.47114632 -0.2731283,-0.76475924 Q 5.0267292,-0.3133866 4.5487547,-0.3133866 Z"/>
        </g>
      </g>
    </g>
</g>
</svg>
