<svg version="1.1" xmlns="http://www.w3.org/2000/svg" viewBox="0 0 41.3 41.3">
<title>6 black</title>
<g id="6-age-icon-black">
    <path
       id="path4807"
       style="fill:#ffcb03;fill-opacity:1;fill-rule:nonzero;stroke:none"
       d="M 20.60375,41.5 C 31.9825,41.5 41.2075,32.27375 41.2075,20.89625 41.2075,9.5174997 31.9825,0.2925 20.60375,0.2925 9.225,0.2925 0,9.5174997 0,20.89625 0,32.27375 9.225,41.5 20.60375,41.5" />
    <g
       id="g4207"
       transform="translate(4.128125,4.370625)">
      <g
         id="g5398"
         transform="matrix(1.25,0,0,-1.25,16.47625,4.17)">
        <path
           d="m 0,0 c 5.451,0 9.885,-4.434 9.885,-9.885 0,-5.451 -4.434,-9.885 -9.885,-9.885 -5.451,0 -9.886,4.434 -9.886,9.885 C -9.886,-4.434 -5.451,0 0,0 m 0,3.295 c -7.28,0 -13.181,-5.899 -13.181,-13.18 0,-7.279 5.901,-13.179 13.181,-13.179 7.279,0 13.18,5.9 13.18,13.179 0,7.281 -5.901,13.18 -13.18,13.18"
           style="fill:#231f20;fill-opacity:1;fill-rule:nonzero;stroke:none"
           id="path5400"/>
      </g>
      <g
         id="g5402"
         transform="matrix(1.25,0,0,-1.25,17.274494,12.78556)">
        <g
           id="text4239"
           style="fill:#ffcb03;fill-opacity:1;stroke:none;stroke-width:1px;stroke-linecap:butt;stroke-linejoin:miter;stroke-opacity:1"
           transform="scale(0.99752196,-1.0024842)">
          <path
             id="path4323"
             style="fill:#231f20;fill-opacity:1"
             d="m -0.64068319,8.1331061 q -1.04471571,0 -1.85044421,-0.4711463 -0.7989003,-0.4779745 -1.2290774,-1.2700466 -0.4301771,-0.7920721 -0.4301771,-1.7275365 0,-0.9764337 0.5530849,-2.1986828 0.559913,-1.2222492 1.3929543,-2.34890343 0.8398695,-1.13348247 1.60462876,-1.84361607 0.0955949,-0.1024231 0.44383349,-0.3345821 0.15704877,-0.1024231 0.42334886,-0.1024231 0.19118981,0 0.42334887,0.1502205 0.23898726,0.1502206 0.40286422,0.3960361 0.163877,0.2458154 0.163877,0.4779745 0,0.21167442 -0.29361292,0.57356942 -0.21167443,0.25947188 -0.94229264,1.06520037 -0.72379,0.80572851 -0.98326188,1.16762351 l 0.0273128,0.027313 q 0.37555141,-0.163877 0.88083877,-0.163877 0.62819509,0 1.16079527,0.2594719 0.5394284,0.2526437 0.9286363,0.6828208 0.3892078,0.430177 0.6077104,0.9969183 0.2253309,0.5667412 0.2253309,1.1949363 0,0.9081516 -0.4506617,1.7070519 Q 1.9676921,7.170329 1.1551354,7.6551318 0.34940687,8.1331063 -0.64068322,8.1331063 Z m 0,-4.9231376 q -0.38920781,0 -0.69647721,0.1911898 -0.3004411,0.1911898 -0.4711463,0.5326002 -0.163877,0.3345821 -0.163877,0.7306182 0,0.6077104 0.361895,1.0310593 0.3687232,0.4233489 0.96960551,0.4233489 0.58722585,0 0.95594905,-0.4165207 0.36872321,-0.4233488 0.36872321,-1.0378875 0,-0.3823796 -0.15022057,-0.7101336 Q 0.38354794,3.6196609 0.08993502,3.4148147 -0.20367791,3.2099685 -0.64068319,3.2099685 Z"/>
        </g>
      </g>
    </g>
</g>
</svg>
