<?xml version="1.0" encoding="utf-8"?>
<!-- Generator: Adobe Illustrator 21.0.0, SVG Export Plug-In . SVG Version: 6.00 Build 0)  -->
<svg version="1.1" id="Layer_1" xmlns="http://www.w3.org/2000/svg" xmlns:xlink="http://www.w3.org/1999/xlink" x="0px" y="0px"
	 viewBox="0 0 246 135.6" style="enable-background:new 0 0 246 135.6;" xml:space="preserve">
<style type="text/css">
	.st0{fill:#FFFFFF;}
</style>
<g id="Layer_1_1_">
	<g>
		<path class="st0" d="M73.8,135.6h-8.7v-23c0-2.7-0.4-4.6-1.3-5.7c-0.9-1.2-2.6-1.7-5-1.7H20.1c-7.4,0-11.2,3.7-11.2,11.2
			c0,7.3,3.7,11,11.2,11h34.8c2.8,0,4.1,1.4,4.1,4.1c0,2.8-1.3,4.1-4,4.1H18.9c-1.8-0.2-4.5-0.6-7.9-1.2c-2.3-0.7-4.3-2.1-6.1-4.1
			c-3.3-3.8-5-8.4-5-14C0,106,3.9,99.9,11.7,97.9c2.6-0.6,5.4-1,8.5-1h37.5c1.4,0,4,0.3,8,0.8c5.4,1.5,8.1,5.9,8.1,13.2
			C73.8,110.9,73.8,135.6,73.8,135.6z"/>
		<path class="st0" d="M159.1,121.6c0,7.4-2.7,11.9-8.1,13.4c-2,0.5-4.7,0.7-8.1,0.7h-37.3c-6.7,0-11.5-1.2-14.3-3.7
			c-4-3.5-6.1-8.7-6.1-15.6c0-5.7,1.7-10.4,5-14c1.7-1.8,3.7-3.2,6.1-4.1l8-1.2h46.1v-14h8.8L159.1,121.6L159.1,121.6z M150.3,119.9
			v-14.7h-44.9c-7.5,0-11.3,3.7-11.3,11c0,4,0.9,6.9,2.6,8.6s4.6,2.5,8.7,2.5H144c3.5,0,5.5-1.2,6.1-3.6
			C150.2,122.9,150.3,121.7,150.3,119.9"/>
		<path class="st0" d="M244.3,123.8c0,3.5-1.2,6.3-3.6,8.5c-2.4,2.2-5.3,3.3-8.8,3.3h-56.6c-2.7,0-4-1.4-4-4.1
			c0-2.8,1.4-4.1,4.3-4.1h55.1c3.1,0,4.7-1.1,4.7-3.4c0-2.4-1.6-3.6-4.7-3.6H183c-3.5,0-6.5-1.1-8.9-3.3c-2.4-2.2-3.7-5-3.7-8.4
			c0-3.5,1.2-6.3,3.7-8.5c2.4-2.2,5.4-3.3,8.9-3.3h56.6c2.6,0,3.9,1.4,3.9,4.3c0,2.7-1.4,4-4.1,4h-55.1c-3.1,0-4.7,1.2-4.7,3.6
			c0,2.3,1.6,3.4,4.7,3.4h47.6c3.5,0,6.4,1.1,8.8,3.2C243.1,117.4,244.3,120.3,244.3,123.8"/>
		<path class="st0" d="M125.2,32.7c-0.5-0.6-17.8-26.7-18.9-28.2s-2-1.8-2.7-1.1c-0.6,0.6-1.8,1.9-2.9,2.8C99.5,7.1,99.4,7.3,99,8
			c-4.5-3.7-13.8-8-25.6-8c-6.6,0-14.1,1.3-21.9,4.8C29.7,14.4,29.3,29.7,30.4,40c0.1,11.6,9.4,24.1,35.3,26.8
			c25.9,2.7,42.3-18.4,42.9-19.2s0.5-1.6,0.5-1.6C94.3,58.2,83.6,62.7,69.9,61.2C56.2,59.6,40.5,54,34.1,39.6
			c1.1-13.3,17.6-23.9,35-24.6c17.4-0.8,25.4,9.3,25.4,9.3s-2.4,3-3.3,4.4s-0.5,1.7,0.5,1.8c1,0.1,25.8,8.3,27.7,8.6
			c1.9,0.4,2.2-1,3.7-2.4C124.6,35.3,125.7,33.4,125.2,32.7z M55.8,59c32.6,9.7,44.9-7.2,52.4-12.2c-5.6,4.9-20.7,22-51,13.6
			s-26-30.7-26-30.7C31.1,36.7,33.6,52.4,55.8,59z M50.1,8.5c-14.9,8-19.5,22.1-16.1,30.2c-3.7-8.8-1.1-21.5,16-31.6
			c12.4-7.3,35-8.7,48.4,5.1c0.1,0.1,0.1,0.1,0.1,0.1L99,8.8l0.3,0.8l-2,11.2l1.3-8.5l-0.1-0.1C96.5,10.4,78-6.6,50.1,8.5z
			 M91.4,29.5l4.1-5L118.6,38L91.4,29.5z M121,38.2L99.1,8.8l1.1-1.5l21.1,30.3L121,38.2z"/>
		<path class="st0" d="M207.4,21.7c-0.5-2.5-2.4-11-17.8-14.6c-5.4-1.2-11.4-1.8-17.5-1.8c-11.3,0-22.8,2.1-30,5.9
			c-8.6,4.6-14.5,10.8-14.5,10.8l0.3,0.9c0,0,15-13.7,41.5-10.7s31.5,12.6,32.8,16.2c-3.7,8.6-20.4,13.1-32.2,12.8s-28.8-2-28.8-2
			s-2-8.3-2-8.8s-1.5-0.6-2.2,0c-0.6,0.6-22.6,23-23.5,23.6s-1.1,1.9,0.5,2.8c1.7,0.9,32.9,14.9,34,15.6c1.1,0.8,1.5-0.1,2.3-0.5
			s2.7-3.8,3.3-4.4s0.1-1.7-0.2-2.2c-0.4-0.5-1.3-2-1.3-2s19,2,33.3-4.1c14.2-6.1,19.9-14.3,21.1-21.3
			C207.6,30.9,207.9,24.2,207.4,21.7z M124.5,45.4l-6.6,5.8l12.9-13.3L124.5,45.4z M147.9,71.9l-11.3-17.3l-3-19.4l5.1-4.2l-4.2,4.4
			l4.7,18.2l10,18.5L147.9,71.9z M139,43.4c2.5,6.5,9.9,18.7,9.9,18.7l-2.2-0.6l-5.6-8.4l-2.8-11c0,0,46.6,8.4,63.6-7.6
			C196.5,40.8,178.2,49.2,139,43.4z M202.5,28.4c0,0,7.7-16.2-19.7-20.7c-5.4-0.9-34.3-3.9-49.9,10.2c0,0,14.1-15.6,50-10.7
			C212.4,11.3,202.5,28.4,202.5,28.4z"/>
	</g>
</g>
</svg>
