<?xml version="1.0" encoding="utf-8"?>
<!-- Generator: Adobe Illustrator 21.0.2, SVG Export Plug-In . SVG Version: 6.00 Build 0)  -->
<svg version="1.1" id="Réteg_1" xmlns="http://www.w3.org/2000/svg" xmlns:xlink="http://www.w3.org/1999/xlink" x="0px" y="0px"
	 viewBox="0 0 48.5 38.6" style="enable-background:new 0 0 48.5 38.6;" xml:space="preserve">
<g fill="white">
	<path d="M10.9,3.7c4.1-1.1,8.2-2.3,12.4-3.4c0.7-0.2,0.6-0.2,1.2,0c5.3,1.4,9.8,2.7,14.9,4.1c0,0,0.1,0,0.2,0.1c0,0.7,0,1.6,0,2.5
		c2.9,0,5.7,0,8.7,0c0,10.5,0,21,0,31.4c-3.7,0-7.4,0-11.1,0c0-3.1,0-6.1,0-9.2c0-0.5,0-1,0-1.6c0-1.5-1.1-2.7-2.5-2.9
		c-1.5-0.2-2.8,0.8-3.1,2.4c-0.1,0.7-0.1,1.5-0.1,2.3c0,2.9,0,6,0,9c-1.6,0-3.1,0-4.8,0c0-0.6,0-1.2,0-1.8c0-2.9,0-5.8,0-8.8
		c0-1.9-1.1-3.2-2.8-3.1c-1.7,0-2.8,1.3-2.8,3.2c0,3.4,0,7,0,10.5c-1.6,0-3,0-4.7,0c0-3.6,0-7.2,0-10.7c0-1.5-0.9-2.7-2.3-3
		c-1.8-0.4-3.4,1-3.4,2.9c0,3.5,0,7.2,0,10.8c-3.6,0-7,0-10.5,0c0-10.4,0-20.8,0-31.4c2.7,0,8.3,0,8.3,0s0-0.7,0-0.9
		c0-0.6,0-1.7,0-1.7"/>
</g>
</svg>
